<svg xmlns="http://www.w3.org/2000/svg" width="396" height="438" viewBox="0 0 396 438" version="1.1">
	<path d="M 178.500 21.452 C 162.328 24.223, 146.358 29.532, 129.864 37.620 C 118.407 43.238, 113.944 46.276, 102 56.587 C 89.293 67.557, 84.836 72.494, 82.047 78.694 C 79.955 83.345, 79.849 84.221, 81.032 87.077 C 84.020 94.290, 90.104 99, 96.436 99 C 99.546 99, 101.240 97.795, 110.516 88.985 C 128.200 72.188, 143.289 62.236, 161 55.684 C 175.354 50.374, 184.041 48.921, 201.472 48.912 C 215.969 48.904, 219.566 49.366, 237 53.469 C 241.140 54.444, 255.948 61.195, 261 64.412 C 276.062 74.001, 283.555 79.715, 293.424 89.139 C 304.327 99.552, 304.976 100, 309.148 99.996 C 314.408 99.992, 319.261 97.260, 322.005 92.759 C 326.616 85.197, 323.704 79.673, 306.255 62.886 C 294.928 51.988, 291.821 49.716, 273.206 38.720 C 266.476 34.745, 259.341 31.482, 253 29.480 C 249.975 28.525, 244.699 26.685, 241.276 25.391 C 229.951 21.109, 221.829 19.992, 203 20.127 C 193.375 20.196, 182.350 20.792, 178.500 21.452 M 187.500 69.901 C 185.850 70.359, 180.225 71.866, 175 73.249 C 158.341 77.659, 147.814 82.961, 132.354 94.730 C 116.022 107.163, 111.128 116.146, 115.577 125.522 C 118.385 131.438, 127.569 133.826, 134.242 130.375 C 135.970 129.481, 139.210 127.040, 141.442 124.951 C 143.674 122.862, 148.600 118.836, 152.390 116.006 C 167.760 104.525, 179.004 100.129, 195.500 99.152 C 222.757 97.537, 236.978 102.794, 263.112 124.147 C 271.938 131.358, 273.091 132, 277.214 132 C 284.588 132, 290.958 126.447, 290.979 120 C 290.990 116.652, 288.571 113.181, 280.371 104.778 C 258.283 82.142, 232.637 70.666, 201.500 69.485 C 195.450 69.256, 189.150 69.443, 187.500 69.901 M 36.750 114.662 C 37.438 114.940, 38.563 114.940, 39.250 114.662 C 39.938 114.385, 39.375 114.158, 38 114.158 C 36.625 114.158, 36.063 114.385, 36.750 114.662 M 374.158 117 C 374.158 118.375, 374.385 118.938, 374.662 118.250 C 374.940 117.563, 374.940 116.438, 374.662 115.750 C 374.385 115.063, 374.158 115.625, 374.158 117 M 194.500 120.004 C 182.213 121.104, 173.622 124.562, 162.353 132.946 C 158.973 135.461, 154.032 140.161, 151.374 143.390 C 147.376 148.245, 146.558 149.918, 146.640 153.065 C 146.771 158.056, 149.654 162.809, 154 165.197 C 159.479 168.209, 164.522 167.051, 173.900 160.628 C 185.741 152.519, 191.315 150.667, 204 150.628 C 216.162 150.589, 220.201 151.849, 233.998 159.988 C 238.671 162.744, 243.414 165, 244.536 165 C 247.676 165, 255.159 160.808, 257.322 157.837 C 259.580 154.736, 259.157 151.899, 255.787 147.545 C 244.756 133.294, 230.277 123.651, 215.069 120.427 C 208.020 118.933, 206.751 118.907, 194.500 120.004 M 329.617 162.573 C 326.931 165.044, 324.906 167.230, 325.117 167.429 C 325.327 167.629, 327.750 165.593, 330.500 162.905 C 336.763 156.783, 336.156 156.555, 329.617 162.573 M 198 175.030 C 193.027 175.882, 190.764 177.325, 186.114 182.608 C 179.687 189.909, 178.493 196.897, 182.049 206.402 C 186.746 218.956, 201.538 224.542, 213.635 218.331 C 215.944 217.145, 219.052 214.110, 221.356 210.789 C 224.581 206.141, 225.296 204.178, 225.729 198.791 C 226.192 193.016, 225.964 191.903, 223.520 188.032 C 217.184 177.994, 208 173.315, 198 175.030 M 252.639 294.694 C 251.513 295.820, 251.954 297, 253.500 297 C 254.325 297, 255 296.577, 255 296.059 C 255 294.798, 253.438 293.895, 252.639 294.694 M 209 304.965 C 209 305.495, 209.870 306.395, 210.934 306.965 C 213.864 308.533, 214.215 308.215, 212 306 C 209.787 303.787, 209 303.515, 209 304.965" stroke="none" fill="#feffff" fill-rule="evenodd"/>
	<path d="M 243.500 26.536 C 245.150 27.292, 247.175 27.896, 248 27.879 C 248.825 27.862, 247.925 27.241, 246 26.500 C 241.434 24.742, 239.638 24.768, 243.500 26.536 M 278 41.430 C 278 41.705, 278.900 42.411, 280 43 C 281.100 43.589, 282 43.845, 282 43.570 C 282 43.295, 281.100 42.589, 280 42 C 278.900 41.411, 278 41.155, 278 41.430 M 37.500 43.502 C 29.421 46.359, 24.230 55.330, 25.621 64.031 C 26.492 69.480, 30.086 73.593, 36.719 76.734 C 41.665 79.076, 42.450 79.182, 46.303 78.029 C 52.461 76.188, 55.737 73.452, 58.637 67.729 C 63.409 58.312, 59.994 48.172, 50.616 43.913 C 45.724 41.692, 42.873 41.602, 37.500 43.502 M 355.500 45.417 C 348.898 48.364, 343.706 57.030, 344.714 63.421 C 345.924 71.104, 352.949 78.632, 359.801 79.590 C 368.099 80.751, 378.146 75.092, 380.939 67.685 C 383.951 59.694, 379.797 49.566, 371.800 45.405 C 368.412 43.642, 359.461 43.649, 355.500 45.417 M 255 61.449 C 255 61.724, 256.350 62.647, 258 63.500 C 259.650 64.353, 261 64.826, 261 64.551 C 261 64.276, 259.650 63.353, 258 62.500 C 256.350 61.647, 255 61.174, 255 61.449 M 266.500 68.518 C 267.600 69.414, 269.400 70.588, 270.500 71.128 C 272.500 72.110, 272.500 72.110, 270.500 70.482 C 269.400 69.586, 267.600 68.412, 266.500 67.872 C 264.500 66.890, 264.500 66.890, 266.500 68.518 M 208.269 69.693 C 209.242 69.947, 210.592 69.930, 211.269 69.656 C 211.946 69.382, 211.150 69.175, 209.500 69.195 C 207.850 69.215, 207.296 69.439, 208.269 69.693 M 180.500 71 C 179.239 71.542, 179.055 71.859, 180 71.859 C 180.825 71.859, 182.400 71.473, 183.500 71 C 184.761 70.458, 184.945 70.141, 184 70.141 C 183.175 70.141, 181.600 70.527, 180.500 71 M 220.750 71.662 C 221.438 71.940, 222.563 71.940, 223.250 71.662 C 223.938 71.385, 223.375 71.158, 222 71.158 C 220.625 71.158, 220.063 71.385, 220.750 71.662 M 232 74.500 C 236.566 76.258, 238.362 76.232, 234.500 74.464 C 232.850 73.708, 230.825 73.104, 230 73.121 C 229.175 73.138, 230.075 73.759, 232 74.500 M 274.500 73.678 C 275.050 74.185, 277.750 76.302, 280.500 78.383 C 285.500 82.166, 285.500 82.166, 281.500 78.496 C 279.300 76.477, 276.600 74.360, 275.500 73.790 C 274.400 73.221, 273.950 73.170, 274.500 73.678 M 122.405 78.250 C 120.500 80.500, 120.500 80.500, 122.750 78.595 C 124.864 76.805, 125.455 76, 124.655 76 C 124.465 76, 123.453 77.013, 122.405 78.250 M 321.638 79.500 C 323.950 83.448, 324 83.507, 324 82.277 C 324 81.697, 323.073 80.159, 321.941 78.861 C 319.881 76.500, 319.881 76.500, 321.638 79.500 M 110.477 89.250 L 102.500 97.500 110.750 89.523 C 118.412 82.115, 119.456 81, 118.727 81 C 118.576 81, 114.864 84.713, 110.477 89.250 M 294.500 91 C 298.874 95.400, 302.678 99, 302.953 99 C 303.228 99, 299.874 95.400, 295.500 91 C 291.126 86.600, 287.322 83, 287.047 83 C 286.772 83, 290.126 86.600, 294.500 91 M 80 86.642 C 80 87.179, 80.700 88.491, 81.555 89.559 C 83.022 91.389, 83.042 91.357, 81.920 89 C 80.462 85.939, 80 85.372, 80 86.642 M 20.607 91.582 C 20.273 92.452, 20 95.616, 20 98.613 C 20 102.663, 20.407 104.219, 21.584 104.671 C 22.475 105.013, 22.735 105.545, 22.178 105.889 C 21.634 106.225, 31.010 106.500, 43.014 106.500 L 64.840 106.500 64.337 99.500 C 64.060 95.650, 63.660 91.938, 63.448 91.250 C 63.156 90.302, 58.006 90, 42.138 90 C 23.981 90, 21.134 90.209, 20.607 91.582 M 341.667 90.667 C 341.300 91.033, 341 94.920, 341 99.304 L 341 107.274 350.252 106.595 C 355.340 106.221, 364.639 106.400, 370.917 106.992 C 379.001 107.755, 382.643 107.757, 383.398 107.002 C 383.984 106.416, 384.634 102.570, 384.842 98.457 C 385.187 91.626, 385.066 91.037, 383.446 91.659 C 382.231 92.125, 381.900 91.971, 382.395 91.170 C 382.938 90.291, 378.041 90, 362.726 90 C 351.510 90, 342.033 90.300, 341.667 90.667 M 86.689 95.750 C 88.494 97.537, 90.540 98.986, 91.235 98.970 C 91.931 98.953, 91.600 98.443, 90.500 97.836 C 89.400 97.229, 87.354 95.780, 85.954 94.616 C 84.553 93.452, 84.884 93.963, 86.689 95.750 M 319.405 96.250 C 317.500 98.500, 317.500 98.500, 319.750 96.595 C 320.988 95.547, 322 94.535, 322 94.345 C 322 93.545, 321.195 94.136, 319.405 96.250 M 281.958 106.250 C 286.102 110.665, 287 111.459, 287 110.708 C 287 110.548, 284.863 108.410, 282.250 105.958 L 277.500 101.500 281.958 106.250 M 114.162 113.543 C 112.340 117.543, 112.734 123.465, 115.002 126.139 C 117.003 128.500, 117.003 128.500, 115.508 125.500 C 113.750 121.973, 113.556 116.697, 115.081 113.849 C 115.676 112.738, 115.974 111.640, 115.743 111.410 C 115.513 111.180, 114.802 112.140, 114.162 113.543 M 30.656 113.678 C 29.656 114.677, 29.911 413.827, 30.912 414.446 C 32.659 415.525, 59.930 415.627, 60.313 414.555 C 60.774 413.264, 60.272 398.111, 59.441 388.258 C 59.106 384.275, 58.868 380.714, 58.913 380.346 C 58.958 379.977, 61.434 379.636, 64.414 379.588 C 67.395 379.540, 70.066 379.268, 70.349 378.984 C 71.202 378.132, 71.496 358.163, 70.669 357.335 C 70.247 356.914, 67.900 356.656, 65.451 356.763 L 61 356.957 60.936 330.728 C 60.786 268.824, 61.152 150.515, 61.494 150.173 C 61.699 149.968, 65.270 153.247, 69.430 157.461 C 73.589 161.675, 77.455 164.837, 78.021 164.487 C 78.587 164.137, 78.967 164.222, 78.866 164.676 C 78.765 165.129, 78.947 166.175, 79.270 167 C 79.593 167.825, 80.102 217.325, 80.402 277 C 80.701 336.675, 81.150 388.313, 81.398 391.750 C 81.651 395.240, 81.442 398, 80.925 398 C 80.416 398, 80 397.304, 80 396.452 C 80 395.189, 78.853 394.959, 73.750 395.202 L 67.500 395.500 67.378 403.331 C 67.300 408.343, 67.660 411.286, 68.378 411.509 C 68.995 411.700, 96.950 412.111, 130.500 412.422 C 164.050 412.734, 192.905 413.259, 194.623 413.589 C 197.545 414.151, 197.781 413.975, 198.303 410.845 C 198.610 409.005, 198.707 383.200, 198.518 353.500 C 198.330 323.800, 198.137 288.155, 198.088 274.289 L 198 249.079 190.250 243.373 C 185.988 240.235, 175.975 231.295, 168 223.506 C 160.025 215.717, 148.775 205.494, 143 200.788 C 129.714 189.962, 118.792 179.819, 86.156 148 C 65.806 128.160, 59.997 121.945, 59.987 120 C 59.948 113.095, 59.785 112.999, 48.133 113.015 C 40.899 113.026, 37.979 113.340, 39 114 C 40.219 114.788, 40.090 114.972, 38.309 114.985 C 37.104 114.993, 35.840 114.550, 35.500 114 C 34.798 112.864, 31.677 112.657, 30.656 113.678 M 348.694 114.639 C 348.312 115.021, 348 117.707, 348 120.608 C 348 123.509, 347.589 126.136, 347.087 126.446 C 346.241 126.969, 346.540 190.424, 347.431 199.250 C 347.810 203, 347.810 203, 342.346 203 C 338.429 203, 337.087 203.331, 337.605 204.170 C 338.091 204.957, 337.783 205.131, 336.664 204.701 C 335.164 204.126, 335 205.363, 335 217.281 L 335 230.500 340.250 230.790 C 348.814 231.263, 348.824 231.272, 347.816 237.269 C 347.332 240.146, 347.161 265.337, 347.436 293.250 L 347.935 344 341.467 344 C 337.910 344, 334.959 344.113, 334.910 344.250 C 334.461 345.493, 334.087 375.034, 334.499 376.750 C 334.952 378.641, 335.714 379.002, 339.269 379.014 C 348.489 379.043, 348 378.040, 348 396.926 C 348 417.346, 348.020 417.390, 356.613 415.994 C 359.975 415.448, 365.600 415.113, 369.113 415.250 L 375.500 415.500 375.500 265 L 375.500 114.500 362.444 114.222 C 355.264 114.070, 349.076 114.257, 348.694 114.639 M 374.158 117 C 374.158 118.375, 374.385 118.938, 374.662 118.250 C 374.940 117.563, 374.940 116.438, 374.662 115.750 C 374.385 115.063, 374.158 115.625, 374.158 117 M 194.250 119.716 C 195.762 119.945, 198.238 119.945, 199.750 119.716 C 201.262 119.487, 200.025 119.300, 197 119.300 C 193.975 119.300, 192.738 119.487, 194.250 119.716 M 265 126.500 C 266.292 127.875, 267.574 129, 267.849 129 C 268.124 129, 267.292 127.875, 266 126.500 C 264.708 125.125, 263.426 124, 263.151 124 C 262.876 124, 263.708 125.125, 265 126.500 M 339.448 128.750 C 339.027 129.713, 338.765 130.871, 338.866 131.324 C 338.967 131.778, 338.631 131.890, 338.118 131.573 C 337.606 131.257, 325.545 142.361, 311.316 156.249 C 286.906 180.073, 268.492 196.965, 256 206.992 C 252.975 209.420, 244.169 217.640, 236.432 225.259 C 228.695 232.877, 219.470 241.004, 215.932 243.318 L 209.500 247.525 209.221 263.013 C 208.874 282.333, 209.334 285.652, 213.163 291.433 C 219.839 301.511, 230.900 303.094, 240.616 295.362 C 246.358 290.791, 248.162 286.666, 246.891 281.008 C 245.697 275.698, 244.714 274.370, 241.521 273.759 C 238.196 273.124, 237 274.667, 237 279.596 C 237 283.148, 236.457 284.270, 233.465 286.896 C 229.210 290.632, 227.661 290.752, 224.495 287.586 C 221.612 284.703, 220.531 281.005, 221.473 277.250 C 221.853 275.738, 222.014 274.457, 221.832 274.404 C 221.649 274.351, 222.113 273.569, 222.862 272.666 C 223.611 271.764, 223.961 270.341, 223.640 269.504 C 222.729 267.130, 224.713 263.048, 229.703 257.029 C 232.224 253.988, 235.144 249.588, 236.190 247.250 C 237.237 244.912, 238.473 243, 238.936 243 C 239.400 243, 239.558 246.713, 239.287 251.250 C 238.796 259.500, 238.796 259.500, 246.148 267.257 C 250.192 271.524, 254.078 275.011, 254.784 275.007 C 255.794 275.002, 256.045 270.181, 255.962 252.394 C 255.857 229.799, 255.858 229.788, 258.178 228.251 C 259.455 227.405, 263.289 224, 266.699 220.686 L 272.898 214.659 272.973 303.811 C 273.014 352.844, 273.269 393.533, 273.538 394.231 C 273.916 395.212, 272.017 395.428, 265.180 395.183 C 257.760 394.918, 256.307 394.595, 256.170 393.183 C 256.080 392.257, 256.028 372.543, 256.054 349.373 C 256.106 303.368, 255.759 297.432, 252.981 296.705 C 251.674 296.364, 250.739 297.252, 249.490 300.022 C 248.552 302.102, 246.033 305.515, 243.892 307.605 L 240 311.406 240 353.810 C 240 392.066, 239.845 396.155, 238.418 395.607 C 237.548 395.273, 233.983 395, 230.496 395 L 224.156 395 224.094 352.931 C 224.060 329.792, 223.773 310.442, 223.457 309.931 C 223.141 309.419, 221.991 309, 220.901 309 C 219.812 309, 217.026 308.080, 214.710 306.955 C 212.163 305.718, 211.267 305.520, 212.441 306.455 C 213.509 307.305, 213.846 308, 213.191 308 C 212.536 308, 211.212 307.212, 210.250 306.249 C 208.583 304.582, 208.513 306.974, 208.769 356.499 C 208.917 385.100, 209.241 409.425, 209.489 410.555 C 209.939 412.603, 210.154 412.610, 274.655 412.555 L 339.369 412.500 339.435 404 L 339.500 395.500 332.242 395.206 L 324.984 394.912 325.021 280.706 L 325.057 166.500 331.609 161 C 341.670 152.553, 341.823 152.232, 342.186 138.683 C 342.409 130.400, 342.167 126.997, 341.357 126.998 C 340.728 126.999, 339.869 127.787, 339.448 128.750 M 274.762 132.707 C 276.006 132.946, 277.806 132.937, 278.762 132.687 C 279.718 132.437, 278.700 132.241, 276.500 132.252 C 274.300 132.263, 273.518 132.468, 274.762 132.707 M 151.924 141.750 C 149.500 144.500, 149.500 144.500, 152.250 142.076 C 153.762 140.742, 155 139.505, 155 139.326 C 155 138.541, 154.190 139.180, 151.924 141.750 M 254.232 146 C 254.919 147.100, 255.893 148, 256.396 148 C 256.898 148, 256.495 147.100, 255.500 146 C 254.505 144.900, 253.531 144, 253.337 144 C 253.142 144, 253.545 144.900, 254.232 146 M 198.750 150.662 C 199.438 150.940, 200.563 150.940, 201.250 150.662 C 201.938 150.385, 201.375 150.158, 200 150.158 C 198.625 150.158, 198.063 150.385, 198.750 150.662 M 207.269 150.693 C 208.242 150.947, 209.592 150.930, 210.269 150.656 C 210.946 150.382, 210.150 150.175, 208.500 150.195 C 206.850 150.215, 206.296 150.439, 207.269 150.693 M 221 154 C 221.825 154.533, 222.950 154.969, 223.500 154.969 C 224.050 154.969, 223.825 154.533, 223 154 C 222.175 153.467, 221.050 153.031, 220.500 153.031 C 219.950 153.031, 220.175 153.467, 221 154 M 146.044 155.300 C 145.938 159.623, 152.153 167.008, 155.885 166.994 C 156.783 166.990, 156.168 166.299, 154.500 165.437 C 150.294 163.263, 149.066 161.857, 147.477 157.397 C 146.713 155.254, 146.068 154.310, 146.044 155.300 M 225 155.332 C 225 155.898, 240.584 165, 241.553 165 C 242.009 165, 239.709 163.384, 236.441 161.409 C 229.317 157.103, 225 154.810, 225 155.332 M 255.872 159.658 C 255.118 160.571, 252.700 162.136, 250.500 163.137 C 248.300 164.137, 247.085 164.966, 247.800 164.978 C 249.771 165.011, 254.272 162.462, 256.407 160.102 C 257.454 158.946, 258.070 158, 257.777 158 C 257.485 158, 256.627 158.746, 255.872 159.658 M 330.182 163.124 C 327.808 165.365, 326.036 167.369, 326.245 167.578 C 326.454 167.787, 328.603 165.943, 331.021 163.479 C 336.504 157.892, 335.968 157.665, 330.182 163.124 M 197.750 174.662 C 198.438 174.940, 199.563 174.940, 200.250 174.662 C 200.938 174.385, 200.375 174.158, 199 174.158 C 197.625 174.158, 197.063 174.385, 197.750 174.662 M 203.250 174.689 C 204.213 174.941, 205.787 174.941, 206.750 174.689 C 207.713 174.438, 206.925 174.232, 205 174.232 C 203.075 174.232, 202.287 174.438, 203.250 174.689 M 211.500 176.589 C 213.150 177.503, 215.400 178.964, 216.500 179.836 C 217.600 180.708, 217.375 180.247, 216 178.813 C 214.625 177.379, 212.375 175.918, 211 175.566 C 208.801 175.004, 208.861 175.127, 211.500 176.589 M 186.946 180.750 L 183.500 184.500 187.250 181.054 C 190.740 177.846, 191.460 177, 190.696 177 C 190.529 177, 188.842 178.688, 186.946 180.750 M 97.375 270 C 97.666 318.125, 97.926 366.050, 97.952 376.500 L 98 395.500 107.250 395.500 L 116.500 395.500 116.285 298 L 116.069 200.500 110.209 195.863 C 106.986 193.312, 102.661 189.262, 100.598 186.863 L 96.847 182.500 97.375 270 M 304.690 187.522 C 303.140 189.464, 301.389 190.740, 300.785 190.367 C 300.183 189.995, 299.970 190.142, 300.310 190.692 C 301.098 191.967, 295.850 197.052, 293.372 197.416 C 292.342 197.567, 291.500 198.227, 291.500 198.882 C 291.500 199.537, 291.050 200.394, 290.500 200.786 C 289.845 201.254, 289.500 235.022, 289.500 298.638 L 289.500 395.777 297.227 395.247 C 302.720 394.870, 305.402 395.089, 306.501 396.001 C 307.352 396.707, 308.150 397.108, 308.274 396.893 C 308.398 396.677, 308.275 348.687, 308 290.250 C 307.500 184, 307.500 184, 304.690 187.522 M 224 189 C 224.589 190.100, 225.295 191, 225.570 191 C 225.845 191, 225.589 190.100, 225 189 C 224.411 187.900, 223.705 187, 223.430 187 C 223.155 187, 223.411 187.900, 224 189 M 179.451 199.067 C 180.104 208.983, 185.801 217.541, 193 219.420 C 195.186 219.991, 195.124 219.865, 192.500 218.415 C 185.390 214.485, 181.510 208.365, 179.909 198.555 C 179.085 193.500, 179.085 193.500, 179.451 199.067 M 226.252 197.500 C 226.263 199.700, 226.468 200.482, 226.707 199.238 C 226.946 197.994, 226.937 196.194, 226.687 195.238 C 226.437 194.282, 226.241 195.300, 226.252 197.500 M 221.511 210.623 C 220.566 212.066, 220.287 212.941, 220.891 212.567 C 222.045 211.854, 224.374 208, 223.650 208 C 223.419 208, 222.457 209.180, 221.511 210.623 M 132.722 296.453 C 132.845 341.579, 132.957 382.328, 132.972 387.007 L 133 395.515 141.060 395.149 C 147.979 394.835, 149.335 395.046, 150.635 396.641 C 152.066 398.399, 152.118 398.364, 151.588 396 C 151.280 394.625, 151.021 356.530, 151.014 311.345 L 151 229.190 146.513 226.561 C 144.045 225.114, 139.883 221.788, 137.263 219.168 L 132.500 214.406 132.722 296.453 M 167.497 274.299 C 167.496 288.160, 167.367 321.544, 167.210 348.488 C 167.012 382.588, 167.250 397.583, 167.994 397.831 C 168.582 398.027, 168.936 397.583, 168.781 396.844 C 168.437 395.198, 179.971 394.379, 182.728 395.853 C 184.415 396.755, 184.511 393.618, 184.735 330.650 L 184.971 264.500 179.367 261 C 176.285 259.075, 172.604 255.925, 171.187 254 C 169.770 252.075, 168.361 250.185, 168.055 249.799 C 167.750 249.414, 167.499 260.439, 167.497 274.299 M 252.603 293.833 C 252.320 294.292, 252.743 294.667, 253.544 294.667 C 254.345 294.667, 255 294.292, 255 293.833 C 255 293.375, 254.577 293, 254.059 293 C 253.541 293, 252.886 293.375, 252.603 293.833" stroke="none" fill="#FFFFFF" fill-rule="evenodd"/>
</svg>